<svg xmlns="http://www.w3.org/2000/svg" viewBox="0 0 490 490" width="18" height="18"><path d="M426.302 387.178H63.698C28.575 387.178 0 358.604 0 323.48c0-35.123 28.575-63.697 63.698-63.697h362.604c35.123 0 63.698 28.574 63.698 63.697 0 35.124-28.575 63.698-63.698 63.698zM63.698 289.845c-18.548 0-33.637 15.089-33.637 33.635 0 18.547 15.089 33.637 33.637 33.637h362.604c18.548 0 33.637-15.089 33.637-33.637 0-18.546-15.089-33.635-33.637-33.635H63.698z" fill="#F86300"/><path d="M102.707 323.48c0 11.344-9.195 20.54-20.54 20.54-11.343 0-20.539-9.196-20.539-20.54 0-11.343 9.196-20.539 20.539-20.539 11.345 0 20.54 9.196 20.54 20.539zM167.841 323.48c0 11.344-9.196 20.54-20.541 20.54-11.343 0-20.539-9.196-20.539-20.54 0-11.343 9.196-20.539 20.539-20.539 11.345 0 20.541 9.196 20.541 20.539zM232.974 323.48c0 11.344-9.196 20.54-20.541 20.54-11.343 0-20.539-9.196-20.539-20.54 0-11.343 9.196-20.539 20.539-20.539 11.344 0 20.541 9.196 20.541 20.539zM298.106 323.48c0 11.344-9.196 20.54-20.541 20.54-11.343 0-20.539-9.196-20.539-20.54 0-11.343 9.196-20.539 20.539-20.539 11.345 0 20.541 9.196 20.541 20.539zM363.239 323.48c0 11.344-9.196 20.54-20.541 20.54-11.343 0-20.539-9.196-20.539-20.54 0-11.343 9.196-20.539 20.539-20.539 11.345 0 20.541 9.196 20.541 20.539zM428.372 323.48c0 11.344-9.196 20.54-20.541 20.54-11.342 0-20.539-9.196-20.539-20.54 0-11.343 9.197-20.539 20.539-20.539 11.345 0 20.541 9.196 20.541 20.539zM442.402 102.822h-39.748v19.915a3.006 3.006 0 01-3.006 3.006h-12.691a3.006 3.006 0 01-3.007-3.006v-19.915h-39.748c-6.64 0-12.024 5.383-12.024 12.024v98.2c0 6.641 5.385 12.025 12.024 12.025h98.2c6.641 0 12.025-5.384 12.025-12.025v-98.2c.001-6.641-5.384-12.024-12.025-12.024zM294.101 102.822h-39.749v19.915a3.006 3.006 0 01-3.006 3.006h-12.691a3.006 3.006 0 01-3.006-3.006v-19.915H195.9c-6.64 0-12.024 5.383-12.024 12.024v98.2c0 6.641 5.385 12.025 12.024 12.025h98.201c6.64 0 12.024-5.384 12.024-12.025v-98.2c0-6.641-5.385-12.024-12.024-12.024zM145.798 102.822h-39.749v19.915a3.006 3.006 0 01-3.006 3.006H90.352a3.006 3.006 0 01-3.006-3.006v-19.915H47.598c-6.641 0-12.025 5.383-12.025 12.024v98.2c0 6.641 5.385 12.025 12.025 12.025h98.2c6.64 0 12.024-5.384 12.024-12.025v-98.2c0-6.641-5.384-12.024-12.024-12.024z"  fill="#F86300"/></svg>